<svg width="11" height="13" viewBox="0 0 11 13" fill="none" xmlns="http://www.w3.org/2000/svg">
<path d="M9.81298 6C9.71964 6 9.63798 5.965 9.56798 5.895C9.49798 5.825 9.46298 5.741 9.46298 5.643V1.373L8.95198 1.59C8.87264 1.62267 8.79798 1.639 8.72798 1.639C8.62531 1.639 8.53898 1.60633 8.46898 1.541C8.40364 1.47567 8.37098 1.39167 8.37098 1.289C8.37098 1.21433 8.38964 1.14667 8.42698 1.086C8.46431 1.02533 8.52264 0.981 8.60198 0.953L9.69398 0.561C9.71731 0.551666 9.74064 0.544666 9.76398 0.54C9.78731 0.535333 9.80831 0.533 9.82698 0.533C9.93431 0.533 10.0183 0.568 10.079 0.638C10.1443 0.703333 10.177 0.789666 10.177 0.897V5.643C10.177 5.741 10.142 5.825 10.072 5.895C10.002 5.965 9.91564 6 9.81298 6Z" fill="white"/>
<path d="M1.10925 10C0.88525 10 0.71325 9.904 0.59325 9.712C0.47325 9.52 0.46125 9.316 0.55725 9.1L3.92925 1.048C4.04925 0.768 4.24525 0.628 4.51725 0.628C4.80525 0.628 5.00125 0.768 5.10525 1.048L8.48925 9.124C8.57725 9.348 8.56125 9.552 8.44125 9.736C8.32925 9.912 8.15725 10 7.92525 10C7.80525 10 7.68925 9.968 7.57725 9.904C7.47325 9.832 7.39725 9.736 7.34925 9.616L6.67725 7.936H2.36925L1.68525 9.616C1.62925 9.744 1.54525 9.84 1.43325 9.904C1.32925 9.968 1.22125 10 1.10925 10ZM2.78925 6.904H6.25725L4.54125 2.632L2.78925 6.904Z" fill="white"/>
</svg>
