<svg width="50" height="50" viewBox="0 0 50 50" fill="none" xmlns="http://www.w3.org/2000/svg">
<path d="M4.81247 23.4208C4.73589 23.1137 4.73026 22.7932 4.79602 22.4837C4.86177 22.1742 4.99718 21.8837 5.19197 21.6343C5.38675 21.3848 5.63579 21.1831 5.92018 21.0443C6.20458 20.9055 6.51685 20.8333 6.83331 20.8333H43.1666C43.4831 20.8333 43.7954 20.9055 44.0798 21.0443C44.3642 21.1831 44.6132 21.3848 44.808 21.6343C45.0028 21.8837 45.1382 22.1742 45.2039 22.4837C45.2697 22.7932 45.2641 23.1137 45.1875 23.4208L41.4146 38.5103C41.1892 39.4118 40.6691 40.212 39.9368 40.7839C39.2045 41.3557 38.302 41.6664 37.3729 41.6666H12.6271C11.6979 41.6664 10.7955 41.3557 10.0632 40.7839C9.33086 40.212 8.81071 39.4118 8.58539 38.5103L4.81247 23.4228V23.4208Z" stroke="white" stroke-width="2.66667" stroke-linejoin="round"/>
<path d="M18.75 29.1665V33.3332" stroke="white" stroke-width="2.66667" stroke-linecap="round"/>
<path d="M31.25 29.1665V33.3332" stroke="white" stroke-width="2.66667" stroke-linecap="round"/>
<path d="M12.5 20.8333L20.8333 8.33325" stroke="white" stroke-width="2.66667" stroke-linecap="round"/>
<path d="M37.5 20.8333L29.1666 8.33325" stroke="white" stroke-width="2.66667" stroke-linecap="round"/>
</svg>
