<svg width="50" height="50" viewBox="0 0 50 50" fill="none" xmlns="http://www.w3.org/2000/svg">
<path d="M43.75 35.4167C43.75 36.5673 42.8173 37.5 41.6667 37.5H20.8333C19.6827 37.5 18.75 36.5673 18.75 35.4167C18.75 34.2661 19.6827 33.3333 20.8333 33.3333H41.6667C42.8173 33.3333 43.75 34.2661 43.75 35.4167ZM43.75 25C43.75 26.1506 42.8173 27.0833 41.6667 27.0833H8.33333C7.18274 27.0833 6.25 26.1506 6.25 25C6.25 23.8494 7.18274 22.9167 8.33333 22.9167H41.6667C42.8173 22.9167 43.75 23.8494 43.75 25ZM43.75 14.5833C43.75 15.7339 42.8173 16.6667 41.6667 16.6667H20.8333C19.6827 16.6667 18.75 15.7339 18.75 14.5833C18.75 13.4327 19.6827 12.5 20.8333 12.5H41.6667C42.8173 12.5 43.75 13.4327 43.75 14.5833Z" fill="white"/>
</svg>
