<svg width="50" height="50" viewBox="0 0 50 50" fill="none" xmlns="http://www.w3.org/2000/svg">
<path d="M39.8918 6.18957C39.5205 5.574 38.9969 5.06447 38.3714 4.71014C37.746 4.35581 37.0398 4.16863 36.3209 4.16666H13.6792C12.2251 4.16666 10.8563 4.94166 10.1084 6.18957L4.46467 15.5937C4.26936 15.9175 4.16634 16.2885 4.16675 16.6667C4.17507 18.6775 4.9157 20.6165 6.25008 22.1208V39.5833C6.25008 41.8812 8.11883 43.75 10.4167 43.75H39.5834C41.8813 43.75 43.7501 41.8812 43.7501 39.5833V22.1208C45.0845 20.6165 45.8251 18.6775 45.8334 16.6667C45.8338 16.2885 45.7308 15.9175 45.5355 15.5937L39.8918 6.18957ZM41.6334 17.1896C41.5048 18.1955 41.0144 19.1201 40.2537 19.7907C39.493 20.4613 38.5141 20.8319 37.5001 20.8333C35.2022 20.8333 33.3334 18.9646 33.3334 16.6667C33.3334 16.525 33.2813 16.4 33.2522 16.2667L33.2938 16.2583L31.7084 8.33332H36.3209L41.6334 17.1896ZM22.5397 8.33332H27.4584L29.1522 16.8021C29.0793 19.0354 27.2501 20.8333 25.0001 20.8333C22.7501 20.8333 20.9209 19.0354 20.848 16.8021L22.5397 8.33332ZM13.6792 8.33332H18.2917L16.7084 16.2583L16.7501 16.2667C16.7188 16.4 16.6667 16.525 16.6667 16.6667C16.6667 18.9646 14.798 20.8333 12.5001 20.8333C11.486 20.8319 10.5072 20.4613 9.7465 19.7907C8.98581 19.1201 8.49534 18.1955 8.36675 17.1896L13.6792 8.33332ZM20.8334 39.5833V33.3333H29.1668V39.5833H20.8334ZM33.3334 39.5833V33.3333C33.3334 31.0354 31.4647 29.1667 29.1668 29.1667H20.8334C18.5355 29.1667 16.6667 31.0354 16.6667 33.3333V39.5833H10.4167V24.7042C11.0855 24.8771 11.7751 25 12.5001 25C13.683 25.0006 14.8525 24.7487 15.9303 24.2612C17.0081 23.7737 17.9695 23.0617 18.7501 22.1729C20.2772 23.9062 22.5147 25 25.0001 25C27.4855 25 29.723 23.9062 31.2501 22.1729C32.0307 23.0617 32.9921 23.7737 34.0699 24.2612C35.1477 24.7487 36.3171 25.0006 37.5001 25C38.2251 25 38.9147 24.8771 39.5834 24.7042V39.5833H33.3334Z" fill="white"/>
</svg>
