<svg width="20" height="23" viewBox="0 0 20 23" fill="none" xmlns="http://www.w3.org/2000/svg">
<g clip-path="url(#clip0)">
<path d="M10.0045 6.33403C7.16517 6.33403 4.87499 8.63853 4.87499 11.4956C4.87499 14.3526 7.16517 16.6571 10.0045 16.6571C12.8437 16.6571 15.1339 14.3526 15.1339 11.4956C15.1339 8.63853 12.8437 6.33403 10.0045 6.33403ZM10.0045 14.8512C8.16963 14.8512 6.66963 13.3463 6.66963 11.4956C6.66963 9.64478 8.16517 8.13989 10.0045 8.13989C11.8437 8.13989 13.3393 9.64478 13.3393 11.4956C13.3393 13.3463 11.8393 14.8512 10.0045 14.8512ZM16.5402 6.1229C16.5402 6.79224 16.0045 7.32681 15.3437 7.32681C14.6786 7.32681 14.1473 6.78774 14.1473 6.1229C14.1473 5.45806 14.683 4.91899 15.3437 4.91899C16.0045 4.91899 16.5402 5.45806 16.5402 6.1229ZM19.9375 7.34478C19.8616 5.73208 19.4955 4.30356 18.3214 3.12661C17.1518 1.94966 15.7321 1.5813 14.1295 1.50044C12.4777 1.4061 7.52678 1.4061 5.87499 1.50044C4.27678 1.57681 2.85713 1.94517 1.68303 3.12212C0.50892 4.29907 0.147313 5.72759 0.0669556 7.34028C-0.0267944 9.00239 -0.0267944 13.9842 0.0669556 15.6463C0.142848 17.259 0.50892 18.6875 1.68303 19.8645C2.85713 21.0415 4.27231 21.4098 5.87499 21.4907C7.52678 21.585 12.4777 21.585 14.1295 21.4907C15.7321 21.4143 17.1518 21.0459 18.3214 19.8645C19.4911 18.6875 19.8571 17.259 19.9375 15.6463C20.0312 13.9842 20.0312 9.00689 19.9375 7.34478ZM17.8036 17.4297C17.4553 18.3102 16.7812 18.9885 15.9018 19.3434C14.5848 19.869 11.4598 19.7477 10.0045 19.7477C8.5491 19.7477 5.41963 19.8645 4.10713 19.3434C3.23213 18.993 2.55803 18.3147 2.20535 17.4297C1.68303 16.1045 1.80356 12.96 1.80356 11.4956C1.80356 10.0311 1.68749 6.88208 2.20535 5.56138C2.55356 4.68091 3.22767 4.00259 4.10713 3.6477C5.4241 3.12212 8.5491 3.24341 10.0045 3.24341C11.4598 3.24341 14.5893 3.12661 15.9018 3.6477C16.7768 3.9981 17.4509 4.67642 17.8036 5.56138C18.3259 6.88657 18.2053 10.0311 18.2053 11.4956C18.2053 12.96 18.3259 16.109 17.8036 17.4297Z" fill="white"/>
</g>
<defs>
<clipPath id="clip0">
<rect width="20" height="23" fill="white"/>
</clipPath>
</defs>
</svg>
