<svg width="56" height="59" viewBox="0 0 56 59" fill="none" xmlns="http://www.w3.org/2000/svg">
<g filter="url(#filter0_d)">
<path d="M41.9728 48.7822H13.9574C10.8027 48.7822 8.23657 46.4759 8.23657 43.6406V18.4617C8.23657 15.6264 10.8027 13.3201 13.9574 13.3201H41.9728C45.1274 13.3201 47.6936 15.6264 47.6936 18.4617V43.6406C47.7171 46.4759 45.151 48.7822 41.9728 48.7822Z" fill="black" fill-opacity="0.06"/>
<path d="M41.9728 48.7822H13.9574C10.8027 48.7822 8.23657 46.4759 8.23657 43.6406V18.4617C8.23657 15.6264 10.8027 13.3201 13.9574 13.3201H41.9728C45.1274 13.3201 47.6936 15.6264 47.6936 18.4617V43.6406C47.7171 46.4759 45.151 48.7822 41.9728 48.7822Z" fill="url(#paint0_linear)"/>
<path d="M49.8594 12.1562H41.0781L32.3204 2H40.8663C41.3371 2 41.7844 2.21159 41.9492 2.52897L49.8594 12.1562Z" fill="#F2F2F2"/>
<path d="M49.8594 12.1562H41.0781V19.2656C41.0781 19.2868 41.0781 19.3079 41.0781 19.3291C41.0781 21.5084 43.0321 23.2646 45.457 23.2646C47.8819 23.2646 49.8359 21.5084 49.8359 19.3291C49.8359 19.3079 49.8359 19.2868 49.8359 19.2656V12.1562H49.8594Z" fill="url(#paint1_linear)"/>
<path d="M14.8049 12.1562H6.02356L13.9573 2.52897C14.1457 2.21159 14.5694 2 15.0403 2H23.5862L14.8049 12.1562Z" fill="#F2F2F2"/>
<path d="M14.7813 12.1562H6V19.2656C6 19.2868 6 19.3079 6 19.3291C6 21.5084 7.95402 23.2646 10.3789 23.2646C12.8037 23.2646 14.7578 21.5084 14.7578 19.3291C14.7578 19.3079 14.7578 19.2868 14.7578 19.2656V12.1562H14.7813Z" fill="url(#paint2_linear)"/>
<path d="M41.1017 12.1562H32.3204L27.918 2H36.558L41.1017 12.1562Z" fill="#56A4AE"/>
<path d="M41.1017 12.1562H32.3204V19.2656C32.3204 19.2868 32.3204 19.3079 32.3204 19.3291C32.3204 21.5084 34.2744 23.2646 36.6993 23.2646C39.1241 23.2646 41.0781 21.5084 41.0781 19.3291C41.0781 19.3079 41.0781 19.2868 41.0781 19.2656V12.1562H41.1017Z" fill="url(#paint3_linear)"/>
<path d="M23.5862 12.1562H14.8049L19.325 2H27.965L23.5862 12.1562Z" fill="#56A4AE"/>
<path d="M23.5862 12.1562H14.8049V19.2656C14.8049 19.2868 14.8049 19.3079 14.8049 19.3291C14.8049 21.5084 16.7589 23.2646 19.1837 23.2646C21.6086 23.2646 23.5626 21.5084 23.5626 19.3291C23.5626 19.3079 23.5626 19.2868 23.5626 19.2656V12.1562H23.5862Z" fill="url(#paint4_linear)"/>
<path d="M32.3674 12.1562H23.5861L24.8103 2H31.1197L32.3674 12.1562Z" fill="#F2F2F2"/>
<path d="M32.3674 12.1562H23.5861V19.2656C23.5861 19.2868 23.5861 19.3079 23.5861 19.3291C23.5861 21.5084 25.5401 23.2646 27.965 23.2646C30.3899 23.2646 32.3439 21.5084 32.3439 19.3291C32.3439 19.3079 32.3439 19.2868 32.3439 19.2656V12.1562H32.3674Z" fill="url(#paint5_linear)"/>
<path d="M15.5818 32.8495V24.9573H17.889C19.3957 24.9573 20.5257 25.2747 21.2791 25.9306C22.0325 26.5865 22.4327 27.5386 22.4327 28.8082C22.4327 29.4218 22.315 29.9719 22.1031 30.4586C21.8912 30.9452 21.5851 31.3895 21.1849 31.7281C20.7847 32.0666 20.2903 32.3629 19.7253 32.5533C19.1603 32.7437 18.5011 32.8495 17.7713 32.8495H15.5818ZM16.3823 25.6344V32.1936H17.7242C18.3363 32.1936 18.8778 32.1301 19.3486 31.982C19.8195 31.8339 20.2197 31.6223 20.5493 31.3261C20.8789 31.0299 21.1378 30.6913 21.3026 30.2681C21.4674 29.845 21.5616 29.3795 21.5616 28.8293C21.5616 26.7135 20.3139 25.6344 17.8184 25.6344H16.3823Z" fill="#00848E" stroke="#00848E" stroke-width="0.5" stroke-miterlimit="10"/>
<path d="M25.5637 29.189C25.4225 29.1044 25.2577 29.0621 25.0223 29.0621C24.8575 29.0621 24.7398 29.0832 24.622 29.1467C24.5043 29.2102 24.4102 29.2737 24.316 29.3583C24.2218 29.4429 24.1512 29.5487 24.0806 29.6757C24.0099 29.8026 23.9629 29.9084 23.9393 30.0566C23.8922 30.1835 23.8687 30.3105 23.8687 30.4374C23.8452 30.5644 23.8452 30.6913 23.8452 30.8183V32.8707H23.2566V28.6601H23.8452V29.5699H23.8687C23.9158 29.4218 23.9864 29.2737 24.0806 29.1467C24.1747 29.0198 24.2689 28.914 24.3631 28.8293C24.4808 28.7447 24.5985 28.6812 24.7162 28.6389C24.8575 28.5966 24.9752 28.5754 25.1164 28.5754C25.2106 28.5754 25.3048 28.5754 25.3754 28.5966C25.446 28.6178 25.5167 28.6178 25.5873 28.6389V29.189H25.5637Z" fill="#56A4AE" stroke="#56A4AE" stroke-width="0.5" stroke-miterlimit="10"/>
<path d="M26.5761 30.8394C26.5761 31.0933 26.6232 31.3261 26.6938 31.5377C26.7644 31.7493 26.8821 31.9185 26.9999 32.0666C27.1411 32.2148 27.3059 32.3206 27.4942 32.384C27.6826 32.4475 27.918 32.4898 28.1534 32.4898C28.6714 32.4898 29.1893 32.3205 29.6601 31.982V32.4898C29.2128 32.786 28.6714 32.913 28.0357 32.913C27.7297 32.913 27.4472 32.8707 27.1882 32.7649C26.9292 32.6591 26.7173 32.5321 26.529 32.3417C26.3407 32.1513 26.1994 31.9185 26.1052 31.6435C26.0111 31.3684 25.964 31.051 25.964 30.7125C25.964 30.3951 26.0111 30.0989 26.1288 29.845C26.2465 29.5699 26.3878 29.3372 26.5761 29.1467C26.7644 28.9563 26.9999 28.787 27.2588 28.6812C27.5178 28.5754 27.8003 28.512 28.1063 28.512C28.4124 28.512 28.6714 28.5543 28.9068 28.6601C29.1422 28.7447 29.3305 28.8928 29.4953 29.0621C29.6601 29.2314 29.7779 29.443 29.8485 29.6969C29.9191 29.9508 29.9662 30.2258 29.9662 30.5432V30.7971H26.5761V30.8394ZM29.3541 30.3739C29.3541 29.9296 29.2364 29.5911 29.001 29.3583C28.7891 29.1256 28.4595 28.9986 28.0828 28.9986C27.8945 28.9986 27.7061 29.0198 27.5413 29.0833C27.3765 29.1467 27.2353 29.2314 27.094 29.3583C26.9763 29.4853 26.8586 29.6122 26.788 29.8027C26.7173 29.9931 26.6467 30.1624 26.6232 30.3739H29.3541Z" fill="#56A4AE" stroke="#56A4AE" stroke-width="0.5" stroke-miterlimit="10"/>
<path d="M33.8035 32.8494V32.1089H33.78C33.6387 32.3839 33.4268 32.5955 33.1443 32.7436C32.8854 32.8917 32.5793 32.9552 32.2497 32.9552C32.0143 32.9552 31.826 32.9341 31.6376 32.8706C31.4493 32.8071 31.308 32.7225 31.1668 32.6167C31.0255 32.5109 30.9314 32.3839 30.8843 32.2358C30.8136 32.0877 30.7901 31.9185 30.7901 31.7492C30.7901 31.3683 30.9313 31.0721 31.1903 30.8393C31.4493 30.6066 31.8495 30.4585 32.3674 30.395L33.78 30.2046C33.78 29.4005 33.4268 28.9985 32.7441 28.9985C32.2026 28.9985 31.6847 29.1678 31.2374 29.5275V28.9562C31.3316 28.8927 31.4493 28.8293 31.567 28.787C31.6847 28.7446 31.826 28.7023 31.9672 28.66C32.1085 28.6177 32.2497 28.5965 32.391 28.5754C32.5322 28.5542 32.6735 28.5542 32.8147 28.5542C33.3327 28.5542 33.7329 28.6812 33.9919 28.9562C34.2508 29.2101 34.3921 29.6121 34.3921 30.1411V32.8706H33.8035V32.8494ZM32.6029 30.8182C32.391 30.8394 32.2026 30.8817 32.0614 30.924C31.9201 30.9663 31.7789 31.0298 31.6847 31.0933C31.5905 31.1567 31.5199 31.2414 31.4728 31.3472C31.4257 31.453 31.4022 31.5799 31.4022 31.728C31.4022 31.8338 31.4257 31.9396 31.4728 32.0454C31.5199 32.1512 31.5905 32.2147 31.6612 32.2993C31.7553 32.3628 31.8495 32.4263 31.9672 32.4686C32.0849 32.5109 32.2262 32.532 32.3674 32.532C32.5793 32.532 32.7677 32.4897 32.9325 32.4263C33.0973 32.3628 33.262 32.257 33.3798 32.13C33.4975 32.0031 33.6152 31.855 33.6858 31.6857C33.7564 31.5164 33.8035 31.326 33.8035 31.1144V30.6912L32.6029 30.8182Z" fill="#56A4AE" stroke="#56A4AE" stroke-width="0.5" stroke-miterlimit="10"/>
<path d="M41.6902 32.8496V30.374C41.6902 30.1201 41.6667 29.9085 41.6196 29.7393C41.5725 29.57 41.5019 29.4219 41.4312 29.3161C41.3606 29.2103 41.2194 29.1256 41.0781 29.0833C40.9368 29.041 40.7721 29.0199 40.5837 29.0199C40.4189 29.0199 40.2541 29.0622 40.0893 29.1256C39.9245 29.1891 39.8068 29.2949 39.6891 29.4219C39.5714 29.5488 39.4772 29.6969 39.4301 29.8662C39.3595 30.0355 39.336 30.2259 39.336 30.4163V32.8496H38.7474V30.3317C38.7474 29.443 38.3707 28.9987 37.6174 28.9987C37.4526 28.9987 37.2878 29.041 37.123 29.1045C36.9817 29.168 36.8405 29.2738 36.7228 29.4007C36.605 29.5277 36.5344 29.6758 36.4638 29.8451C36.3932 30.0143 36.3696 30.2259 36.3696 30.4375V32.8496H35.7811V28.639H36.3696V29.3161H36.3932C36.7228 28.7871 37.1936 28.5332 37.8293 28.5332C37.9941 28.5332 38.1588 28.5544 38.3001 28.5967C38.4414 28.639 38.5826 28.7025 38.7003 28.7871C38.818 28.8717 38.9122 28.9564 39.0064 29.0833C39.1005 29.2103 39.1476 29.3161 39.1947 29.443C39.3595 29.1468 39.5714 28.9141 39.8304 28.7659C40.0893 28.6178 40.3954 28.5332 40.725 28.5332C41.7608 28.5332 42.2552 29.1045 42.2552 30.2471V32.8496H41.6902Z" fill="#56A4AE" stroke="#56A4AE" stroke-width="0.5" stroke-miterlimit="10"/>
<path d="M15.5817 41.715C15.723 41.7996 15.8878 41.9054 16.0526 41.9689C16.2174 42.0324 16.4057 42.117 16.5705 42.1593C16.7588 42.2016 16.9236 42.2439 17.112 42.2651C17.3003 42.2863 17.4651 42.3074 17.6299 42.3074C18.2655 42.3074 18.7364 42.2016 19.066 41.9689C19.372 41.7573 19.5368 41.4188 19.5368 41.0167C19.5368 40.8263 19.4897 40.6359 19.4191 40.4878C19.3485 40.3397 19.2308 40.1916 19.066 40.0646C18.9012 39.9376 18.7128 39.8107 18.4774 39.6837C18.242 39.5568 17.9595 39.4087 17.6299 39.2394C17.2768 39.0701 16.9707 38.9009 16.7117 38.7316C16.4528 38.5835 16.2409 38.4142 16.0761 38.2449C15.9113 38.0757 15.7936 37.9064 15.723 37.716C15.6523 37.5255 15.6053 37.314 15.6053 37.06C15.6053 36.7638 15.6759 36.4888 15.8171 36.2349C15.9584 36.0021 16.1467 35.7905 16.4057 35.6213C16.6647 35.452 16.9472 35.325 17.2768 35.2192C17.6064 35.1346 17.9595 35.0923 18.3362 35.0923C18.9954 35.0923 19.5604 35.1769 20.0077 35.3462V36.1291C19.5133 35.8752 18.9247 35.7482 18.2655 35.7482C18.0066 35.7482 17.7711 35.7694 17.5593 35.8328C17.3474 35.8963 17.1355 35.9598 16.9707 36.0656C16.8059 36.1714 16.6647 36.2983 16.5705 36.4676C16.4763 36.6157 16.4292 36.8061 16.4292 37.0177C16.4292 37.2082 16.4528 37.3774 16.5234 37.5255C16.594 37.6737 16.6882 37.8006 16.8295 37.9276C16.9707 38.0545 17.1591 38.1815 17.3945 38.3084C17.6299 38.4354 17.9124 38.5835 18.242 38.7316C18.5951 38.9009 18.9012 39.0701 19.1602 39.2182C19.4191 39.3875 19.631 39.5356 19.8193 39.7261C19.9841 39.8953 20.1254 40.0858 20.2196 40.2762C20.3137 40.4666 20.3373 40.6782 20.3373 40.9321C20.3373 41.2706 20.2666 41.5457 20.1254 41.7996C19.9841 42.0535 19.7958 42.2651 19.5604 42.4344C19.3249 42.6037 19.0189 42.7306 18.6893 42.8152C18.3597 42.8999 17.983 42.9422 17.5593 42.9422C17.418 42.9422 17.2768 42.9422 17.0884 42.921C16.9001 42.8999 16.7117 42.8787 16.5234 42.8364C16.3351 42.7941 16.1467 42.7518 15.9819 42.7094C15.8171 42.6671 15.6759 42.6037 15.5582 42.5402V41.715H15.5817Z" fill="#00848E" stroke="#00848E" stroke-width="0.5" stroke-miterlimit="10"/>
<path d="M27.1646 43.0481C26.8115 43.0481 26.5054 43.0058 26.2229 42.9C25.9404 42.7942 25.705 42.6461 25.5166 42.4556C25.3283 42.2652 25.1635 42.0325 25.0693 41.7786C24.9752 41.5035 24.9045 41.2284 24.9045 40.8899C24.9045 40.5302 24.9516 40.234 25.0693 39.9589C25.187 39.6838 25.3283 39.4511 25.5402 39.2607C25.7521 39.0702 25.9875 38.9221 26.27 38.8163C26.5525 38.7105 26.8821 38.6682 27.2352 38.6682C27.5648 38.6682 27.8709 38.7105 28.1534 38.8163C28.4359 38.9221 28.6478 39.0702 28.8361 39.2395C29.0244 39.4088 29.1657 39.6627 29.2599 39.9377C29.354 40.2128 29.4011 40.509 29.4011 40.8687C29.4011 41.2073 29.354 41.5035 29.2363 41.7574C29.1422 42.0325 28.9774 42.2652 28.789 42.4556C28.6007 42.6461 28.3653 42.7942 28.0828 42.9C27.8473 43.0058 27.5177 43.0481 27.1646 43.0481ZM27.2117 39.1126C26.9527 39.1126 26.7173 39.1549 26.5054 39.2395C26.2935 39.3241 26.1287 39.4299 25.9639 39.5781C25.7992 39.7262 25.705 39.9166 25.6344 40.1282C25.5637 40.3398 25.5166 40.5937 25.5166 40.8687C25.5166 41.1226 25.5637 41.3765 25.6344 41.5881C25.705 41.7997 25.8227 41.9901 25.9639 42.1383C26.1052 42.2864 26.2935 42.4133 26.4819 42.4768C26.6938 42.5614 26.9292 42.6038 27.1881 42.6038C27.4471 42.6038 27.6825 42.5614 27.8944 42.4768C28.1063 42.3922 28.2711 42.2864 28.4124 42.1383C28.5536 41.9901 28.6478 41.7997 28.7184 41.5881C28.789 41.3765 28.8361 41.1226 28.8361 40.8476C28.8361 40.2763 28.6949 39.8531 28.4124 39.5569C28.1298 39.2607 27.7296 39.1126 27.2117 39.1126Z" fill="#56A4AE" stroke="#56A4AE" stroke-width="0.5" stroke-miterlimit="10"/>
<path d="M32.9325 39.2818C32.7912 39.1972 32.6264 39.1549 32.391 39.1549C32.2262 39.1549 32.1085 39.176 31.9908 39.2395C31.8731 39.303 31.7789 39.3665 31.6847 39.4511C31.5905 39.5357 31.5199 39.6415 31.4493 39.7685C31.3787 39.8954 31.3316 40.0012 31.308 40.1493C31.2609 40.2763 31.2374 40.4032 31.2374 40.5302C31.2139 40.6571 31.2139 40.7841 31.2139 40.9111V42.9635H30.6253V38.7529H31.2139V39.6627H31.2374C31.2845 39.5146 31.3551 39.3665 31.4493 39.2395C31.5435 39.1125 31.6376 39.0068 31.7318 38.9221C31.8495 38.8375 31.9672 38.774 32.0849 38.7317C32.2262 38.6894 32.3439 38.6682 32.4851 38.6682C32.5793 38.6682 32.6735 38.6682 32.7441 38.6894C32.8147 38.7105 32.8854 38.7105 32.956 38.7317V39.2818H32.9325Z" fill="#56A4AE" stroke="#56A4AE" stroke-width="0.5" stroke-miterlimit="10"/>
<path d="M33.9448 40.9534C33.9448 41.2073 33.9919 41.4401 34.0625 41.6517C34.1331 41.8633 34.2509 42.0325 34.3686 42.1806C34.5098 42.3288 34.6746 42.4346 34.863 42.498C35.0513 42.5827 35.2867 42.6038 35.5221 42.6038C36.0401 42.6038 36.558 42.4346 37.0288 42.096V42.6038C36.5815 42.9 36.0401 43.027 35.4044 43.027C35.0984 43.027 34.8159 42.9847 34.5569 42.8789C34.2979 42.7731 34.0861 42.6461 33.8977 42.4557C33.7094 42.2653 33.5681 42.0325 33.474 41.7575C33.3798 41.4824 33.3327 41.165 33.3327 40.8265C33.3327 40.5091 33.3798 40.2129 33.4975 39.959C33.6152 39.6839 33.7565 39.4512 33.9448 39.2607C34.1331 39.0703 34.3686 38.901 34.6275 38.7952C34.8865 38.6895 35.169 38.626 35.4751 38.626C35.7811 38.626 36.0401 38.6683 36.2755 38.7741C36.5109 38.8799 36.6993 39.0068 36.8641 39.1761C37.0289 39.3454 37.1466 39.557 37.2172 39.8109C37.2878 40.0648 37.3349 40.3398 37.3349 40.6572V40.9111H33.9448V40.9534ZM36.7228 40.4879C36.7228 40.0436 36.6051 39.7051 36.3697 39.4723C36.1578 39.2396 35.8282 39.1126 35.4515 39.1126C35.2632 39.1126 35.0748 39.1338 34.91 39.1973C34.7452 39.2607 34.604 39.3454 34.4627 39.4723C34.345 39.5993 34.2273 39.7262 34.1567 39.9167C34.0861 40.1071 34.0154 40.2764 33.9919 40.4879H36.7228Z" fill="#56A4AE" stroke="#56A4AE" stroke-width="0.5" stroke-miterlimit="10"/>
<path d="M24.0805 42.7941C23.8451 42.8999 23.5861 42.9634 23.3036 42.9634C22.409 42.9634 21.9617 42.4979 21.9617 41.5669V38.4354H20.9965V37.8853H21.9617V36.6369L22.6444 36.4253V37.8853H24.0805V38.4354H22.6444V41.4822C22.6444 41.8208 22.715 42.0535 22.8328 42.2016C22.9505 42.3498 23.1624 42.4344 23.4449 42.4344C23.6567 42.4344 23.8686 42.3709 24.057 42.2651V42.7941H24.0805Z" fill="#56A4AE" stroke="#56A4AE" stroke-width="0.5" stroke-miterlimit="10"/>
</g>
<defs>
<filter id="filter0_d" x="0" y="0" width="55.8594" height="58.7822" filterUnits="userSpaceOnUse" color-interpolation-filters="sRGB">
<feFlood flood-opacity="0" result="BackgroundImageFix"/>
<feColorMatrix in="SourceAlpha" type="matrix" values="0 0 0 0 0 0 0 0 0 0 0 0 0 0 0 0 0 0 127 0" result="hardAlpha"/>
<feOffset dy="4"/>
<feGaussianBlur stdDeviation="3"/>
<feComposite in2="hardAlpha" operator="out"/>
<feColorMatrix type="matrix" values="0 0 0 0 0 0 0 0 0 0 0 0 0 0 0 0 0 0 0.25 0"/>
<feBlend mode="normal" in2="BackgroundImageFix" result="effect1_dropShadow"/>
<feBlend mode="normal" in="SourceGraphic" in2="effect1_dropShadow" result="shape"/>
</filter>
<linearGradient id="paint0_linear" x1="27.9673" y1="13.3096" x2="27.9673" y2="48.7893" gradientUnits="userSpaceOnUse">
<stop offset="9.05724e-07" stop-color="#9C9B9B"/>
<stop offset="0.0681079" stop-color="#A1A0A0"/>
<stop offset="0.1469" stop-color="#AFAEAE"/>
<stop offset="0.231" stop-color="#C5C5C5"/>
<stop offset="0.3182" stop-color="#E5E5E5"/>
<stop offset="0.3343" stop-color="#ECECEC"/>
<stop offset="0.5645" stop-color="#ECECEC"/>
<stop offset="0.6024" stop-color="#ECECEC"/>
<stop offset="0.9561" stop-color="#ECECEC"/>
<stop offset="0.9562" stop-color="#ECECEC"/>
<stop offset="0.9676" stop-color="#E9E9E9"/>
<stop offset="0.9751" stop-color="#E1E1E0"/>
<stop offset="0.9816" stop-color="#D2D2D1"/>
<stop offset="0.9874" stop-color="#BCBCBC"/>
<stop offset="0.9928" stop-color="#A1A1A0"/>
<stop offset="0.9978" stop-color="#80807F"/>
<stop offset="1" stop-color="#6F6F6E"/>
</linearGradient>
<linearGradient id="paint1_linear" x1="45.4721" y1="23.2737" x2="45.4721" y2="12.1594" gradientUnits="userSpaceOnUse">
<stop offset="4.52862e-07" stop-color="#B1B1B1"/>
<stop offset="0.486" stop-color="#B3B3B3"/>
<stop offset="0.661" stop-color="#BABABA"/>
<stop offset="0.7858" stop-color="#C5C5C5"/>
<stop offset="0.8866" stop-color="#D6D6D6"/>
<stop offset="0.972" stop-color="#ECECEC"/>
<stop offset="1" stop-color="#F5F5F5"/>
</linearGradient>
<linearGradient id="paint2_linear" x1="10.3862" y1="23.2737" x2="10.3862" y2="12.1594" gradientUnits="userSpaceOnUse">
<stop offset="4.52862e-07" stop-color="#B1B1B1"/>
<stop offset="0.486" stop-color="#B3B3B3"/>
<stop offset="0.661" stop-color="#BABABA"/>
<stop offset="0.7858" stop-color="#C5C5C5"/>
<stop offset="0.8866" stop-color="#D6D6D6"/>
<stop offset="0.972" stop-color="#ECECEC"/>
<stop offset="1" stop-color="#F5F5F5"/>
</linearGradient>
<linearGradient id="paint3_linear" x1="36.7197" y1="23.2737" x2="36.7197" y2="12.1594" gradientUnits="userSpaceOnUse">
<stop stop-color="#004953"/>
<stop offset="0.4583" stop-color="#024B55"/>
<stop offset="0.6234" stop-color="#08525C"/>
<stop offset="0.7411" stop-color="#135D67"/>
<stop offset="0.8363" stop-color="#236E78"/>
<stop offset="0.9178" stop-color="#38848E"/>
<stop offset="0.9886" stop-color="#519FA9"/>
<stop offset="1" stop-color="#56A4AE"/>
</linearGradient>
<linearGradient id="paint4_linear" x1="19.1865" y1="23.2737" x2="19.1865" y2="12.1594" gradientUnits="userSpaceOnUse">
<stop stop-color="#004953"/>
<stop offset="0.4583" stop-color="#024B55"/>
<stop offset="0.6234" stop-color="#08525C"/>
<stop offset="0.7411" stop-color="#135D67"/>
<stop offset="0.8363" stop-color="#236E78"/>
<stop offset="0.9178" stop-color="#38848E"/>
<stop offset="0.9886" stop-color="#519FA9"/>
<stop offset="1" stop-color="#56A4AE"/>
</linearGradient>
<linearGradient id="paint5_linear" x1="27.9673" y1="23.2737" x2="27.9673" y2="12.1594" gradientUnits="userSpaceOnUse">
<stop offset="4.52862e-07" stop-color="#B1B1B1"/>
<stop offset="0.486" stop-color="#B3B3B3"/>
<stop offset="0.661" stop-color="#BABABA"/>
<stop offset="0.7858" stop-color="#C5C5C5"/>
<stop offset="0.8866" stop-color="#D6D6D6"/>
<stop offset="0.972" stop-color="#ECECEC"/>
<stop offset="1" stop-color="#F5F5F5"/>
</linearGradient>
</defs>
</svg>
