<svg width="234" height="318" viewBox="0 0 234 318" fill="none" xmlns="http://www.w3.org/2000/svg">
<path d="M233.8 188.9C233.1 221.2 226 251.1 206 276.7C188.5 299.2 165.4 312 137.2 316.2C114 319.6 91.3 317.8 69.6 308.9C41.7 297.5 23.1 276.8 11.6 249.4C1.40002 224.9 -1.19999 199.3 1.40001 173C6.10001 125.4 22.7 82.3 51 43.7C59.5 32.1 69.4 21.7 81.1 13.3C105.8 -4.6 129.4 -4.4 154.3 13.8C173.8 28 187.9 46.9 199.7 67.6C217.8 99.5 228.9 133.8 232.7 170.4C233.3 176.7 233.5 183 233.8 188.9Z" fill="white"/>
</svg>
